<svg height='300px' width='300px'  fill="#ffffff" xmlns="http://www.w3.org/2000/svg" xmlns:xlink="http://www.w3.org/1999/xlink" version="1.1" x="0px" y="0px" viewBox="0 0 100 100" enable-background="new 0 0 100 100" xml:space="preserve"><path fill-rule="evenodd" clip-rule="evenodd" d="M63.673,92.545l-0.45-0.05c-2.733-0.467-5.95-2.083-9.649-4.85  c-1.334-1-2.634-2.066-3.9-3.2l-4.65-4.3c-3.466-3.8-6.166-8.633-8.1-14.5c-1.066-3.133-1.883-6.583-2.45-10.35  c-0.267-1.733-0.483-3.683-0.649-5.85c-0.2-2.3,0.066-4.517,0.8-6.65c0.533-1.6,1.583-3.683,3.149-6.25c1.7-3,2.768-5.033,3.2-6.1  c0.967-2.7,1.067-4.833,0.3-6.4c-0.466-0.9-1.183-1.75-2.149-2.55c-0.733-0.6-1.934-1.283-3.601-2.05  c-1.566-0.767-2.982-1.433-4.25-2c0.334,0.867,0.551,1.8,0.65,2.8c0.033,0.267,0.05,1.017,0.05,2.25  c-0.1,0.467-0.233,1.167-0.399,2.1l-1.5,3.8l-4.9,9.25c-1.767,3.767-2.7,7.617-2.8,11.55c0,3.267,0.417,6.75,1.25,10.45  c0.6,2.833,1.399,5.733,2.399,8.7c0.634,1.966,1.567,4.333,2.801,7.1c1.733,3.6,3.717,6.817,5.949,9.65c1.601,2.033,3.233,3.7,4.9,5  c0.8,0.6,1.884,1.316,3.25,2.15C47.79,92.278,54.706,92.378,63.673,92.545z M50.272,8.395l0.95,0.85  c1.233,1.367,2.167,2.683,2.8,3.95c1.101,2.133,2.034,4.95,2.801,8.45c0.933,4.667,1.633,9.767,2.1,15.3  c1.434,1.7,4.283,4.534,8.55,8.5c4.101,3.733,7.033,6.75,8.8,9.05c2.534,3.233,4.167,6.617,4.9,10.15c0.2,0.7,0.333,1.567,0.4,2.6  c0.066,1.033,0.017,1.933-0.15,2.7l-0.2,0.7l-0.35,0.75c-0.333,0.533-0.75,0.934-1.25,1.2c-0.767,0.433-1.75,0.55-2.95,0.35  c-1.066-0.233-2.45-0.833-4.15-1.8c-0.666-0.4-1.732-1.133-3.199-2.2c-1.667-1.267-2.601-2-2.801-2.2l-5-4.2  c0.567,2.967,1.268,5.617,2.101,7.95l3,7.15c0.333,0.667,0.866,1.617,1.6,2.85l1.65,2.5c1.8,2.566,3.633,4.833,5.5,6.8  c0.133,0.167,1.25,1.317,3.35,3.45l0.05,0.1l0.65,0.55l-0.5,0.05c-6.9,0.7-23.533,1.05-49.9,1.05c-0.767,0-1.482-0.083-2.149-0.25  c-0.967-0.233-1.45-0.617-1.45-1.15c0-0.667,0.867-1.117,2.6-1.35c0.134-0.5,0.351-0.95,0.65-1.35l0.7-0.8l0.7-0.55  c0.633-0.5,1.467-0.917,2.5-1.25c1.066-0.333,2.05-0.483,2.949-0.45l-1.75-1.75c-2.433-2.667-4.633-5.9-6.6-9.7  c-2.533-5.066-4.483-10.45-5.85-16.15c-0.934-3.767-1.417-7.417-1.45-10.95c0-4.167,0.934-8.383,2.8-12.65  c0.4-0.9,0.917-1.95,1.55-3.15l3.4-6.35l1.25-3.25c0.667-2.367,0.399-4.533-0.8-6.5c-1.2-1.833-3.167-3.383-5.9-4.65l-0.65-0.25  c-4.166-1.833-4.166-2.95,0-3.35c0.334-0.033,0.7-0.05,1.101-0.05c1.3,0,2.85,0.033,4.649,0.1c0.167,0,0.934-0.133,2.301-0.4  c1.033-0.367,1.767-0.667,2.199-0.9c0.5-0.267,1.25-0.667,2.25-1.2c0.967-0.466,1.801-0.816,2.5-1.05  c1.567-0.533,3.367-0.733,5.4-0.6c0.467,0,0.9,0.05,1.3,0.15l1.3,0.2l2.5,0.85l1.2,0.6l1.05,0.7  C49.573,7.712,49.906,7.995,50.272,8.395z M54.223,22.295c-0.666-3.2-1.55-5.783-2.649-7.75c-0.434-1-1.2-2.133-2.301-3.4  c-0.633-0.633-1.149-1.067-1.55-1.3l-1.8-1c-0.167-0.1-0.483-0.233-0.95-0.4l-1.05-0.3l-2.15-0.35c-1.633-0.1-3.083,0.067-4.35,0.5  c-0.467,0.167-1.95,0.867-4.45,2.1c-0.733,0.367-1.6,0.717-2.6,1.05c-1.601,0.333-2.601,0.5-3,0.5c-0.233,0.067-0.533,0.067-0.9,0  c1.2,0.833,2.25,1.784,3.15,2.85c0.333,0.067,0.8,0.167,1.399,0.3c2.667,0.667,4.717,1.333,6.15,2c1.434,0.667,2.667,1.417,3.7,2.25  c1.3,1.066,2.267,2.233,2.899,3.5c0.634,1.267,0.884,2.767,0.75,4.5l-0.1,1.05l-0.3,1c-0.134,0.667-0.333,1.317-0.601,1.95  c-0.6,1.6-1.75,3.783-3.449,6.55c-1.533,2.633-2.5,4.517-2.9,5.65c-0.6,1.733-0.85,3.617-0.75,5.65c0.2,2.634,0.384,4.534,0.55,5.7  c0.533,3.767,1.25,7.083,2.15,9.95c1.767,5.633,4.2,10.3,7.3,14l4.25,4.3c1.033,0.967,2.267,2.067,3.7,3.3  c3.333,2.867,6.316,4.717,8.95,5.55c0.533,0.233,1.033,0.4,1.5,0.5l0.3,0.1c6.066,0.167,10.316,0.367,12.75,0.6  c-3.101-2.4-6.134-5.483-9.101-9.25l-3.55-5.4l-3.399-7.25c-1.134-3-2.084-6.633-2.851-10.9l-5.35-4.5c-2.7-2.167-2.7-2.6,0-1.3  l2.75,1.85c0.366,0.267,0.767,0.567,1.2,0.9l7.699,5.75c3.034,2.367,4.784,3.716,5.25,4.05c0.9,0.667,1.917,1.333,3.051,2  c1.467,0.8,2.633,1.3,3.5,1.5c0.533,0.1,0.967,0.083,1.3-0.05c0.3-0.2,0.5-0.567,0.6-1.1c0.2-1.267,0.101-2.684-0.3-4.25  c-0.6-3.033-2.1-6.067-4.5-9.1c-1.7-2.2-4.533-5.066-8.5-8.6c-3.3-3.033-5.417-5.066-6.35-6.1c-1.2-1.167-2.134-2.183-2.801-3.05  l-0.899-1.1c-0.267-0.333-0.55-0.767-0.851-1.3c-0.566-1.033-0.866-1.633-0.899-1.8c-0.566-1.533-0.601-2.417-0.101-2.65  c0.467-0.167,1.167,0.333,2.101,1.5l0.1,0.15C55.54,29.362,54.956,25.729,54.223,22.295z M36.073,89.245  c-1.033,0.4-1.9,0.8-2.601,1.2c-0.666,0.367-1.267,0.75-1.8,1.15c-0.233,0.2-0.417,0.417-0.55,0.65h10.649  c-1.833-0.833-3.55-1.934-5.149-3.3L36.073,89.245z"></path></svg>